<?xml version="1.0" standalone="no"?>
<!DOCTYPE svg PUBLIC "-//W3C//DTD SVG 20010904//EN"
 "http://www.w3.org/TR/2001/REC-SVG-20010904/DTD/svg10.dtd">
<svg version="1.0" xmlns="http://www.w3.org/2000/svg"
 width="200.000000pt" height="200.000000pt" viewBox="0 0 200.000000 200.000000"
 preserveAspectRatio="xMidYMid meet">
<metadata>
Created by potrace 1.10, written by Peter Selinger 2001-2011
</metadata>
<g transform="translate(0.000000,200.000000) scale(0.100000,-0.100000)"
fill="#000000" stroke="none">
<path d="M965 1433 l7 -73 -106 0 -106 0 0 -173 0 -173 70 -69 70 -69 0 172 0
172 100 0 100 0 0 -97 1 -98 69 -72 70 -73 0 173 0 172 -141 140 -141 140 7
-72z m148 -132 l87 -88 0 -112 c0 -61 -4 -111 -9 -111 -5 0 -19 12 -30 26 -17
22 -21 41 -21 109 0 68 -4 87 -21 109 -20 25 -25 26 -117 26 -85 0 -98 -3
-119 -22 -21 -20 -23 -29 -23 -135 0 -93 -3 -113 -15 -113 -8 0 -22 11 -30 24
-13 19 -15 50 -13 162 l3 139 77 5 c78 6 118 25 118 57 0 29 30 9 113 -76z"/>
<path d="M479 864 c-17 -21 0 -49 32 -49 18 0 25 6 27 24 6 38 -34 55 -59 25z"/>
<path d="M1370 735 l0 -125 31 0 c29 0 30 1 24 33 -4 17 -11 34 -16 35 -13 5
-11 50 2 54 6 2 13 32 16 66 l6 62 -32 0 -31 0 0 -125z"/>
<path d="M1570 735 l0 -125 31 0 c31 0 31 0 29 53 -3 75 -3 77 25 77 24 0 25
-2 25 -65 l0 -65 30 0 30 0 0 68 c0 98 -25 125 -97 106 -11 -3 -24 -16 -28
-27 -7 -20 -8 -21 -12 -3 -3 10 0 22 6 26 7 3 14 23 18 43 5 36 5 37 -26 37
l-31 0 0 -125z"/>
<path d="M250 729 l0 -119 33 0 c32 0 33 1 29 37 -3 21 -11 42 -19 48 -17 12
-12 71 6 68 7 -2 11 13 11 40 0 42 -1 44 -30 45 l-30 1 0 -120z"/>
<path d="M350 795 c-24 -32 -33 -51 -25 -53 8 -2 16 -10 19 -18 5 -12 1 -14
-15 -9 -17 6 -15 -2 17 -49 33 -50 41 -56 70 -56 19 0 34 2 34 5 0 3 -18 28
-40 56 -22 28 -40 55 -40 60 0 6 16 30 36 54 45 53 46 60 10 60 -23 1 -36 -9
-66 -50z"/>
<path d="M480 701 l0 -91 28 0 27 0 -1 87 c-1 87 -2 88 -28 91 l-26 3 0 -90z"/>
<path d="M575 699 l0 -89 28 0 c26 0 27 2 27 53 0 60 10 80 36 75 16 -3 20
-14 22 -66 3 -62 3 -62 33 -62 l30 0 -5 68 c-7 108 -9 110 -111 111 l-60 0 0
-90z"/>
<path d="M801 766 c-27 -29 -29 -96 -3 -119 27 -25 78 -22 96 5 9 12 19 19 23
15 3 -4 -3 -20 -14 -35 -16 -22 -28 -27 -62 -27 -38 0 -41 -2 -41 -27 0 -27 2
-28 49 -28 34 0 56 6 75 21 25 20 26 24 26 119 l0 98 -64 0 c-54 0 -67 -3 -85
-22z m96 -42 c8 -22 -10 -49 -32 -49 -22 0 -40 27 -32 49 8 21 56 21 64 0z"/>
<path d="M1012 774 c-17 -12 -22 -24 -20 -47 3 -28 9 -34 46 -45 56 -18 55
-36 -3 -30 -42 5 -45 4 -45 -18 0 -31 38 -41 91 -25 27 8 41 19 45 35 8 34
-12 66 -46 73 -16 3 -34 11 -39 17 -13 16 33 20 60 6 17 -10 19 -7 19 20 0 29
-2 30 -43 30 -23 0 -53 -7 -65 -16z"/>
<path d="M1154 774 c3 -9 6 -42 6 -75 0 -72 24 -105 68 -95 15 4 44 7 65 6
l37 -1 0 91 0 90 -30 0 -30 0 0 -65 c0 -70 -15 -90 -46 -64 -13 11 -15 26 -11
71 l5 58 -35 0 c-28 0 -34 -3 -29 -16z"/>
<path d="M1456 758 c-22 -29 -23 -34 -11 -49 20 -21 19 -35 0 -19 -21 17 -19
4 7 -41 18 -33 27 -39 55 -39 40 0 40 5 3 50 -17 19 -30 39 -30 45 0 6 14 24
30 40 38 36 38 45 1 45 -21 0 -37 -9 -55 -32z"/>
<path d="M632 519 c-18 -7 -23 -15 -20 -36 3 -24 8 -28 33 -28 34 0 43 27 11
33 -11 3 -16 0 -12 -7 4 -6 2 -11 -3 -11 -6 0 -11 7 -11 15 0 14 12 19 33 16
4 0 7 3 7 8 0 16 -14 19 -38 10z"/>
<path d="M928 508 c-6 -18 3 -58 13 -58 5 0 10 9 11 20 0 11 1 25 2 32 1 16
-21 22 -26 6z"/>
<path d="M1020 485 c0 -24 5 -35 15 -35 8 0 15 7 15 15 0 8 5 15 10 15 6 0 10
-7 10 -15 0 -8 5 -15 10 -15 6 0 10 16 10 35 0 39 -6 43 -26 18 -13 -17 -13
-17 -14 0 0 9 -7 17 -15 17 -10 0 -15 -11 -15 -35z"/>
<path d="M700 480 c0 -27 3 -30 30 -30 25 0 30 4 30 24 0 14 -4 28 -10 31 -5
3 -10 -3 -10 -14 0 -11 -4 -23 -10 -26 -6 -4 -10 5 -10 19 0 14 -4 26 -10 26
-5 0 -10 -13 -10 -30z"/>
<path d="M792 501 c-21 -13 -10 -46 16 -49 20 -3 23 0 20 24 -3 30 -16 38 -36
25z"/>
<path d="M863 494 c-3 -9 0 -20 8 -25 11 -7 11 -9 1 -9 -7 0 -11 -4 -7 -10 8
-13 35 -1 35 15 0 7 -6 16 -12 18 -10 4 -10 6 0 6 18 1 15 21 -3 21 -9 0 -18
-7 -22 -16z"/>
<path d="M1122 498 c-7 -7 -12 -18 -12 -25 0 -15 30 -32 48 -26 17 7 15 50 -4
57 -20 8 -18 8 -32 -6z"/>
<path d="M1195 500 c-12 -20 6 -50 31 -50 20 0 24 5 24 30 0 17 -4 30 -10 30
-5 0 -10 -12 -10 -26 0 -14 -4 -23 -10 -19 -5 3 -7 12 -4 19 6 17 -12 31 -21
16z"/>
<path d="M1283 494 c-3 -9 0 -20 8 -25 11 -7 11 -9 1 -9 -7 0 -11 -4 -7 -10 8
-13 35 -1 35 15 0 7 -6 16 -12 18 -10 4 -10 6 0 6 18 1 15 21 -3 21 -9 0 -18
-7 -22 -16z"/>
<path d="M1350 495 c-16 -19 -6 -45 19 -45 23 0 35 28 20 46 -15 18 -24 18
-39 -1z"/>
</g>
</svg>
